<svg width="18" height="17" viewBox="0 0 18 17" fill="none" xmlns="http://www.w3.org/2000/svg">
<path d="M6.33333 7.22222V15.2222M6.33333 7.22222H2.42188C1.92405 7.22222 1.67539 7.22222 1.48524 7.31911C1.31799 7.40433 1.1821 7.54021 1.09688 7.70747C1 7.89761 1 8.14671 1 8.64453V15.2222H6.33333M6.33333 7.22222V2.42231C6.33333 1.92448 6.33333 1.67539 6.43022 1.48524C6.51544 1.31799 6.65132 1.1821 6.81858 1.09688C7.00872 1 7.25738 1 7.75521 1H10.2441C10.7419 1 10.9914 1 11.1815 1.09688C11.3488 1.1821 11.4842 1.31799 11.5694 1.48524C11.6663 1.67539 11.6667 1.92448 11.6667 2.42231V4.55556M6.33333 15.2222H11.6667M11.6667 15.2222L17 15.2223V5.97786C17 5.48004 16.9997 5.23094 16.9028 5.0408C16.8176 4.87354 16.6826 4.73766 16.5154 4.65244C16.3252 4.55556 16.0756 4.55556 15.5778 4.55556H11.6667M11.6667 15.2222V4.55556" stroke="white" stroke-opacity="0.8" stroke-width="2" stroke-linecap="round" stroke-linejoin="round"/>
</svg>
