<svg width="24" height="24" viewBox="0 0 24 24" fill="none" xmlns="http://www.w3.org/2000/svg">
<path d="M16.8537 16.8536C16.6583 17.049 16.3422 17.049 16.1466 16.8536L12.0006 12.7067L7.85374 16.8536C7.65834 17.049 7.34218 17.049 7.14655 16.8536C6.95115 16.6582 6.95115 16.342 7.14655 16.1464L11.2944 12.0005L7.14718 7.85359C6.95177 7.65818 6.95177 7.34203 7.14718 7.1464C7.34259 6.951 7.65874 6.951 7.85437 7.1464L12.0006 11.2942L16.1475 7.14734C16.3429 6.95193 16.6591 6.95193 16.8547 7.14734C17.0501 7.34275 17.0501 7.6589 16.8547 7.85453L12.7069 12.0005L16.8537 16.1473C17.0506 16.3411 17.0506 16.6598 16.8537 16.8536Z" fill="white"/>
</svg>
